# xmcd
#
# Track frame offsets:
#	150
#	19275
#	37275
#	57900
#	80402
#	99902
#	117302
#	135230
#	152630
#	169355
#	187582
#
# Disc length: 2663 seconds
#
# Revision: 1
# Processed by: cddbd v1.5.2PL0 Copyright (c) Steve Scherf et al.
# Submitted via: EasyCDDAExtractor 12.0.0.1
#
DISCID=860a650b
DTITLE=Daniela Romo - Un Nuevo Amor
DYEAR=1996
DGENRE=Latin
TTITLE0=Me Gusta J.S. Bach
TTITLE1=Un Nuevo Amor
TTITLE2=Yo Soy La Dueña
TTITLE3=Matame
TTITLE4=Una Aventura
TTITLE5=Te Amare Hasta El Final
TTITLE6=Las Mujeres
TTITLE7=Poesias
TTITLE8=No Soy Ella
TTITLE9=Ni Contigo Ni Sin Ti
TTITLE10=Quiero Saber
EXTD=YEAR: 1996
EXTT0=
EXTT1=
EXTT2=
EXTT3=
EXTT4=
EXTT5=
EXTT6=
EXTT7=
EXTT8=
EXTT9=
EXTT10=
PLAYORDER=
